<svg width="57" height="33" viewBox="0 0 57 33" fill="none" xmlns="http://www.w3.org/2000/svg">
<path d="M0 0.363116H16.6514C18.4865 0.363116 20.1111 0.726235 21.525 1.45247C22.939 2.14845 24.037 3.16215 24.8192 4.49359C25.6014 5.79476 25.9925 7.29263 25.9925 8.98718V13.2084C25.9925 14.9635 25.5863 16.5219 24.7741 17.8836C23.9618 19.215 22.8186 20.259 21.3445 21.0155C19.9005 21.7417 18.2158 22.1048 16.2904 22.1048H6.22736V32.136H0V0.363116ZM16.2002 16.6581C17.2531 16.6581 18.1105 16.3252 18.7723 15.6595C19.4342 14.9635 19.7651 14.0557 19.7651 12.9361V9.25952C19.7651 8.20042 19.4643 7.36828 18.8626 6.76308C18.291 6.12762 17.5239 5.80989 16.5612 5.80989H6.22736V16.6581H16.2002Z" fill="#FBF503"/>
<path d="M40.1775 32.4991C37.861 32.4991 35.8153 31.9998 34.0404 31.0012C32.2955 30.0027 30.9417 28.5956 29.9791 26.78C29.0164 24.9341 28.535 22.8159 28.535 20.4254V12.0737C28.535 9.68316 29.0164 7.5801 29.9791 5.7645C30.9718 3.91865 32.3557 2.49644 34.1306 1.49786C35.9357 0.499288 38.0115 0 40.358 0H45.1413C47.3976 0 49.3832 0.484157 51.0979 1.45247C52.8127 2.42079 54.1364 3.78248 55.069 5.53755C56.0317 7.26237 56.5131 9.27465 56.5131 11.5744H50.3759C50.3759 9.75881 49.8946 8.30633 48.9319 7.21698C47.9692 6.09736 46.7057 5.53755 45.1413 5.53755H40.358C38.6733 5.53755 37.3195 6.17301 36.2967 7.44393C35.2738 8.68458 34.7624 10.3186 34.7624 12.346V20.1531C34.7624 22.1805 35.2588 23.8296 36.2515 25.1006C37.2443 26.3412 38.553 26.9615 40.1775 26.9615H45.0511C46.6455 26.9615 47.9391 26.3412 48.9319 25.1006C49.9548 23.8599 50.4662 22.2259 50.4662 20.1985H56.6033C56.6033 22.6495 56.122 24.8131 55.1593 26.6892C54.1966 28.5351 52.8428 29.9724 51.0979 31.0012C49.3531 31.9998 47.3375 32.4991 45.0511 32.4991H40.1775Z" fill="#FBF503"/>
</svg>
